<?xml version="1.0" standalone="no"?><!DOCTYPE svg PUBLIC "-//W3C//DTD SVG 1.1//EN" "http://www.w3.org/Graphics/SVG/1.1/DTD/svg11.dtd"><svg t="1566375779114" class="icon" viewBox="0 0 1024 1024" version="1.1" xmlns="http://www.w3.org/2000/svg" p-id="1773" width="16" height="16" xmlns:xlink="http://www.w3.org/1999/xlink"><defs><style type="text/css"></style></defs><path d="M512 959c246.854 0 447-200.146 447-447 0-246.854-200.146-447-447-447C265.146 65 65 265.146 65 512 65 758.854 265.146 959 512 959zM512 94.8c230.048 0 417.2 187.152 417.2 417.2S742.048 929.2 512 929.2 94.8 742.048 94.8 512 281.952 94.8 512 94.8z" p-id="1774" fill="#5F5F5F"></path><path d="M497.1 269.875l29.8 0 0 342.7-29.8 0 0-342.7Z" p-id="1775" fill="#5F5F5F"></path><path d="M512 701.975m-29.8 0a29.8 29.8 0 1 0 59.6 0 29.8 29.8 0 1 0-59.6 0Z" p-id="1776" fill="#5F5F5F"></path></svg>